<svg xmlns="http://www.w3.org/2000/svg" width="46" height="67"><path fill-rule="evenodd" fill="#8389D1" d="M41.399 39.887L23 66.994 4.573 39.849c-6.875-9.346-5.876-24.773 2.163-32.973C11.08 2.445 16.855.005 23 .005c6.143 0 11.919 2.44 16.263 6.871 8.039 8.2 9.038 23.627 2.136 33.011zM37.567 8.606C33.675 4.637 28.502 2.451 23 2.451c-5.503 0-10.676 2.186-14.567 6.155C1.177 16.007.284 29.939 6.519 38.419L23 62.695l16.453-24.238c6.263-8.518 5.37-22.45-1.886-29.851zM23.212 31.813c-4.628 0-8.396-3.843-8.396-8.564s3.768-8.564 8.396-8.564c4.628 0 8.395 3.843 8.395 8.564s-3.767 8.564-8.395 8.564zm0-14.681c-3.307 0-5.997 2.744-5.997 6.117 0 3.373 2.69 6.117 5.997 6.117 3.306 0 5.997-2.744 5.997-6.117 0-3.373-2.691-6.117-5.997-6.117z"/></svg>