<svg xmlns="http://www.w3.org/2000/svg" width="57" height="57"><path fill-rule="evenodd" fill="#8389D1" d="M56.518 48.492l-2.901 4.822a6.796 6.796 0 0 1-4.027 3.103c-1.455.394-2.956.59-4.464.583-6.55 0-16.079-3.442-28.88-16.243C.154 24.662-1.152 13.737.585 7.406a6.802 6.802 0 0 1 3.103-4.027L8.512.481a3.349 3.349 0 0 1 4.515 1.016l7.694 11.538a3.37 3.37 0 0 1-.734 4.509l-4.318 3.36a1.438 1.438 0 0 0-.379 1.848l.35.64c1.155 2.115 2.596 4.754 7.908 10.069 5.312 5.315 7.949 6.753 10.068 7.908l.639.352c.625.347 1.41.182 1.842-.387l3.361-4.322a3.367 3.367 0 0 1 4.508-.732l11.537 7.694a3.35 3.35 0 0 1 1.015 4.518zm-2.077-2.934l-11.536-7.694a1.461 1.461 0 0 0-1.956.317L37.59 42.5a3.325 3.325 0 0 1-4.267.881l-.624-.344c-2.225-1.214-4.994-2.724-10.504-8.233-5.51-5.51-7.019-8.28-8.233-10.506l-.343-.623a3.325 3.325 0 0 1 .88-4.267l4.319-3.36c.6-.47.738-1.322.317-1.957l-3.507-5.262-4.179-6.275a1.454 1.454 0 0 0-1.96-.44L4.665 5.008a4.917 4.917 0 0 0-2.248 2.901C.813 13.754 2.141 23.963 17.59 39.413c15.449 15.45 25.657 16.779 31.501 15.175a4.908 4.908 0 0 0 2.896-2.246l2.895-4.824a1.453 1.453 0 0 0-.441-1.96zM32.298 19.004a6.656 6.656 0 0 1 6.648 6.649.95.95 0 1 1-1.899 0 4.755 4.755 0 0 0-4.749-4.749.95.95 0 1 1 0-1.9zm0-5.699c6.816.008 12.339 5.532 12.347 12.348a.95.95 0 1 1-1.899 0c-.007-5.768-4.681-10.442-10.448-10.449a.95.95 0 1 1 0-1.899zm17.096 13.298a.95.95 0 0 1-.949-.95c-.01-8.914-7.234-16.138-16.147-16.148a.95.95 0 1 1 0-1.9c9.962.011 18.035 8.085 18.046 18.048a.95.95 0 0 1-.95.95z"/></svg>