<svg xmlns="http://www.w3.org/2000/svg" width="62" height="62"><path fill-rule="evenodd" fill="#8389D1" d="M62 28.882h-3.005V15.198c0-3.28-2.696-5.949-6.01-5.949h-4.069l-4.165-7.413A3.612 3.612 0 0 0 41.598 0c-.611 0-1.216.156-1.751.45L23.863 9.249H6.01C2.696 9.249 0 11.918 0 15.198v40.853C0 59.331 2.696 62 6.01 62h46.975c3.314 0 6.01-2.669 6.01-5.949V44.053H62V28.882zm-9.015-17.253a3.585 3.585 0 0 1 3.566 3.173h-4.516l-1.782-3.173h2.732zm-11.969-9.1c.564-.313 1.323-.094 1.634.462l6.634 11.81h-30.56L41.016 2.529zm15.575 53.522c0 1.967-1.618 3.569-3.606 3.569H6.01c-1.988 0-3.606-1.602-3.606-3.569V15.198c0-1.968 1.618-3.569 3.606-3.569h13.531l-5.764 3.173H6.761c-.665 0-1.202.533-1.202 1.19 0 .657.537 1.19 1.202 1.19h49.83v11.701h-8.79c-4.081 0-7.404 3.289-7.404 7.33v.511c0 4.042 3.323 7.33 7.404 7.33h8.79v11.997zm3.005-14.378H47.801c-2.757 0-5-2.22-5-4.95v-.512c0-2.729 2.243-4.949 5-4.949h11.795v10.411zm-8.113-5.108c0 1.452-1.188 2.627-2.654 2.627s-2.654-1.176-2.654-2.627c0-1.451 1.188-2.627 2.654-2.627s2.654 1.177 2.654 2.627z"/></svg>