<svg xmlns="http://www.w3.org/2000/svg" width="59" height="42"><path fill-rule="evenodd" fill="#8389D1" d="M54.244 42.004H4.756A4.766 4.766 0 0 1-.001 37.24V4.759A4.766 4.766 0 0 1 4.756-.004h49.488a4.766 4.766 0 0 1 4.757 4.763V37.24a4.766 4.766 0 0 1-4.757 4.764zM1.902 37.24a2.859 2.859 0 0 0 2.854 2.858h49.488a2.859 2.859 0 0 0 2.854-2.858V4.759c0-.387-.079-.756-.219-1.094L37.531 20.561l10.891 10.233a.951.951 0 1 1-1.303 1.387L36.172 21.896c-.028-.026-.041-.062-.065-.091l-3.114 2.719c-.965.842-2.228 1.263-3.493 1.263-1.265 0-2.53-.421-3.493-1.261l-3.113-2.72c-.024.029-.036.064-.064.09L11.879 32.181a.947.947 0 0 1-1.345-.042.952.952 0 0 1 .041-1.345L21.47 20.562 2.123 3.66c-.142.338-.221.71-.221 1.099V37.24zM4.756 1.901c-.49 0-.943.136-1.346.354l23.847 20.832c1.216 1.061 3.27 1.061 4.484 0l23.853-20.83a2.82 2.82 0 0 0-1.35-.356H4.756z"/></svg>