<svg xmlns="http://www.w3.org/2000/svg" width="56" height="60"><path fill-rule="evenodd" fill="#8389D1" d="M55 60H1a1 1 0 0 1-1-1V5a1 1 0 0 1 1-1h7V1a1 1 0 0 1 1-1h7a1 1 0 0 1 1 1v3h22V1a1 1 0 0 1 1-1h7a1 1 0 0 1 1 1v3h7a1 1 0 0 1 1 1v54a1 1 0 0 1-1 1zM15 5V2h-5v6h5V5zm31 0V2h-5v6h5V5zm8 1h-6v3a1 1 0 0 1-1 1h-7a1 1 0 0 1-1-1V6H17v3a1 1 0 0 1-1 1H9a1 1 0 0 1-1-1V6H2v9h52V6zm0 11H2v41h52V17zm-34 6h27v29H9V23h11zm18 27h7v-7h-7v7zm0-9h7v-7h-7v7zm0-9h7v-7h-7v7zm-9 18h7v-7h-7v7zm0-9h7v-7h-7v7zm0-9h7v-7h-7v7zm-9 18h7v-7h-7v7zm0-9h7v-7h-7v7zm0-9h7v-7h-7v7zm-9 18h7v-7h-7v7zm0-9h7v-7h-7v7zm0-9h7v-7h-7v7z"/></svg>