<svg xmlns="http://www.w3.org/2000/svg" width="63" height="51"><path fill-rule="evenodd" fill="#8389D1" d="M62.638 5.74c-.321-.319-.856-.425-1.284-.319l-2.138.744a14.547 14.547 0 0 0 2.673-4.569c.214-.531.107-.956-.214-1.275a1.143 1.143 0 0 0-1.283-.212c-2.994 1.275-5.56 2.337-7.699 2.975 0 .106-.107 0-.214 0-1.711-.957-5.881-3.081-8.875-3.081-7.592.106-13.687 6.481-13.687 14.236v.425C18.796 12.539 12.701 9.352 6.071 2.446L5.002 1.384 4.36 2.659C.724 9.565 3.291 15.833 7.461 20.083c-1.925-.319-3.208-.956-4.384-1.913-.428-.318-.962-.424-1.497-.106-.428.213-.642.85-.535 1.381 1.497 4.994 5.24 9.031 9.303 11.475-1.925 0-3.529-.213-5.132-1.275-.428-.213-1.07-.213-1.498.106-.427.319-.641.85-.427 1.381 1.925 5.419 5.667 8.287 11.655 9.031-3.101 1.806-7.164 3.294-13.473 3.4-.642 0-1.176.425-1.39.956-.214.638 0 1.169.428 1.594C4.36 49.194 12.915 51 23.501 51c18.82 0 34.218-16.68 34.218-37.186v-.318c2.352-1.169 4.277-3.4 5.239-6.481.107-.425 0-.957-.32-1.275zm-6.416 6.056l-.642.212v1.806c0 19.337-14.436 35.061-32.079 35.061-9.731 0-16.254-1.594-19.783-3.293 7.379-.532 11.656-2.869 14.971-5.419l2.673-1.912h-3.208c-6.095 0-9.837-1.7-11.976-5.738 1.925.638 3.956.638 6.202.532.855-.107 1.711-.107 2.566-.107l.321-2.124c-4.063-1.169-8.875-4.781-11.228-9.669 2.139.956 4.491 1.169 6.63 1.169h3.315l-2.673-1.912c-2.246-1.594-8.876-7.225-5.668-15.3 6.844 6.694 13.367 9.775 25.129 11.9l1.283.212v-2.975c0-6.587 5.133-12.005 11.549-12.112 2.459-.106 6.523 2.125 7.699 2.763.642.318 1.283.425 1.925.212 1.604-.531 3.528-1.275 5.667-2.124-.962 1.593-2.246 3.081-3.956 4.462-.428.319-.535.956-.321 1.487.214.532.855.744 1.39.532l4.17-1.382c-.748 1.381-1.925 2.975-3.956 3.719z"/></svg>