<svg xmlns="http://www.w3.org/2000/svg" width="70" height="68"><path fill-rule="evenodd" fill="#8389D1" d="M57.136 68c-6.198 0-12.864-1.472-12.864-4.701V35.093c0-3.23 6.666-4.701 12.864-4.701S70 31.863 70 35.093v28.206C70 66.528 63.334 68 57.136 68zm0-35.258c-6.831 0-10.337 1.71-10.525 2.365v.007c.188.618 3.694 2.329 10.525 2.329 6.783 0 10.291-1.685 10.525-2.35-.234-.666-3.742-2.351-10.525-2.351zm10.525 5.203c-2.487 1.255-6.599 1.848-10.525 1.848S49.1 39.2 46.611 37.946v1.847c.177.635 3.684 2.351 10.525 2.351s10.348-1.716 10.525-2.368v-1.831zm0 4.701c-2.487 1.255-6.599 1.848-10.525 1.848s-8.036-.593-10.525-1.847v1.847c.177.635 3.684 2.351 10.525 2.351s10.348-1.716 10.525-2.368v-1.831zm0 4.701c-2.487 1.255-6.599 1.849-10.525 1.849s-8.036-.588-10.525-1.848v1.848c.177.634 3.684 2.35 10.525 2.35s10.348-1.716 10.525-2.368v-1.831zm0 4.701c-2.487 1.255-6.599 1.849-10.525 1.849s-8.036-.588-10.525-1.848v1.848c.177.634 3.684 2.35 10.525 2.35s10.348-1.716 10.525-2.368v-1.831zm0 4.701c-2.487 1.255-6.599 1.849-10.525 1.849S49.1 58.01 46.611 56.75v1.848c.177.634 3.684 2.35 10.525 2.35s10.348-1.716 10.525-2.368v-1.831zm0 4.701c-2.487 1.255-6.599 1.849-10.525 1.849s-8.036-.588-10.525-1.848v1.848c.177.634 3.684 2.35 10.525 2.35s10.348-1.716 10.525-2.368V61.45zM38.425 27.034h9.282c.553 0 1.002.451 1.002 1.007 0 .556-.449 1.007-1.002 1.007h-9.282a1.005 1.005 0 0 1-1.002-1.007c0-.556.449-1.007 1.002-1.007zm-9.356.067c5.684 0 10.291 4.63 10.291 10.342 0 5.712-4.607 10.342-10.291 10.342-5.681-.006-10.285-4.633-10.291-10.342 0-5.712 4.608-10.342 10.291-10.342zm0 18.804c4.651 0 8.42-3.788 8.42-8.462 0-4.673-3.769-8.462-8.42-8.462-4.648.005-8.414 3.791-8.42 8.462 0 4.674 3.77 8.462 8.42 8.462zm.585-7.287h-1.169a2.798 2.798 0 0 1-2.924-2.65 2.73 2.73 0 0 1 2.339-2.585v-.053c0-.649.524-1.175 1.169-1.175.646 0 1.17.526 1.17 1.175h1.169c.646 0 1.17.526 1.17 1.175s-.524 1.175-1.17 1.175h-2.923c-.364 0-.585.205-.585.294s.221.294.585.294h1.169a2.798 2.798 0 0 1 2.924 2.65 2.732 2.732 0 0 1-2.339 2.586v.052c0 .65-.524 1.176-1.17 1.176a1.173 1.173 0 0 1-1.169-1.176h-1.169c-.646 0-1.17-.526-1.17-1.175s.524-1.175 1.17-1.175h2.923c.364 0 .585-.204.585-.294 0-.089-.221-.294-.585-.294zm-18.78 7.219h8.84c.553 0 1.002.451 1.002 1.007 0 .556-.449 1.007-1.002 1.007h-9.283a.998.998 0 0 1-.74-.328L4.939 42.3a1.012 1.012 0 0 1-.262-.679v-8.358c0-.302.107-.594.302-.823l5.224-5.121a1 1 0 0 1 .701-.285h8.81c.553 0 1.002.451 1.002 1.007 0 .556-.449 1.007-1.002 1.007h-8.403l-4.628 4.543v7.639l4.191 4.607zm48.601-17.964h-.002a1.004 1.004 0 0 1-1-1.007v-2.519H2.005v26.192h38.759c.553 0 1.002.451 1.002 1.007 0 .556-.449 1.007-1.002 1.007H1c-.552 0-1-.451-.999-1.007V23.338c0-.556.449-1.006 1.002-1.005h58.474a1.003 1.003 0 0 1 1 1.007v3.528c0 .556-.449 1.005-1.002 1.005zm-7.016-8.227a.972.972 0 0 1-.221-.024L6.441 9.266l-2.12 9.592a1.003 1.003 0 0 1-1.197.765 1.009 1.009 0 0 1-.761-1.203L4.702 7.843A1.001 1.001 0 0 1 5.9 7.079l46.778 10.577c.457.104.781.511.782.981a1.005 1.005 0 0 1-1.001 1.009zm-6.235-5.954l-27.2-11.389-1.919 3.859V6.16l-.029.059a1.003 1.003 0 0 1-1.363.408 1.013 1.013 0 0 1-.407-1.37l2.339-4.7a1.004 1.004 0 0 1 1.287-.481l28.066 11.752c.512.215.754.807.54 1.321a1.002 1.002 0 0 1-1.314.543z"/></svg>