<svg xmlns="http://www.w3.org/2000/svg" width="70" height="40"><path fill-rule="evenodd" fill="#FBC800" d="M69.281 7.819c-.233.268-.667-.245-1.127-.27-.46-.031-.052.431-.229.943-.182.512-2.1 1.268-2.536 1.484-.439.217-.46.352-.489.757-.025.404-.28.703-.743 1.161-.462.459-.73 1.122-.959 1.662-.229.541-.229-.54-.259-.972-.024-.432.415-2.366-1.141-2.23-.488.043-1.127.542-1.512 1.082-.384.538.1.405.385.837.283.432-.052.916-.231 1.484-.182.567-1.69 1.998-1.895 2.213-.207.214-.104 1.027-.104 1.352 0 .324-.54.324-1.002.486-.458.163-.099-.889-.203-1.214-.104-.323-.59.162-.92.703-.337.541.38 1.108.33 2.161-.05 1.053-1.972 1.403-2.253 1.432-.285.026-.592.484-.132 1.24.46.758-.384.895-.875 1.242-.484.352-.484-.105-.691-.403-.201-.3-.382.375-.613.699-.23.326-.1-.73-.178-1.214-.077-.488-1.179-1.295-1.436-1.62-.253-.325-.279.187-.715.565-.436.381-1.203 1.756-1.385 2.191-.175.432-.387.432-.564.213-.181-.213-.898-2.429-1.307-2.752-.408-.328-1.255-1.056-1.998-1.11-.743-.055-.894-.377-1.385-.567-.486-.186-.561-.295-.561 0 0 .296.434.595.844.567.413-.027.795.566.769 1.077-.026.515-1.177.89-1.998 1.217-.821.325-1.536-1.217-1.741-1.728-.203-.512-.616-.538-.616-.295 0 .242.67 1.266.946 1.809.288.539 1.288.619 1.876.619.587 0 .386.163.229.811-.152.647-1.586 2.268-1.893 2.618-.307.355-.129 1.893-.179 2.54-.05.648-.611.648-1.074 1.108-.462.461-.514 1.35-.875 2.134-.356.782-1.25.999-2.099 1.13-.845.136-.615-.726-.746-1.404-.126-.673-.897-4.804-1.23-5.425-.331-.62-.437-.754-.23-1.297.204-.539-.897-.7-2.719-.43-1.818.273-2.379-2.432-2.379-3.43 0-1 1.51-2.754 1.741-3.024.229-.269.254-.325.818-.485.567-.162 2.363-.567 3.153-.243.793.326.486.783 1.153 1.106.661.327 1.305-.269 1.895.056.589.324 1 .159 1.358-.272.359-.431.078-.756-.054-.863-.127-.109-1.047-.214-1.354-.351-.307-.135-.408-.461-.512-.03-.101.435-.616.167-.693.03-.074-.135-.307-.488-.486-.406-.18.081-.436.296-.742.486-.307.189-.052-.38.024-.621.078-.243-1.154-.92-1.665-.946-.511-.025-.743.512-.949.999-.204.488-.996.701-1.411.918-.407.217-.741-.404-.843-.73-.101-.321.102-.592.152-1.051.051-.458.821-.378 1.282-.352.46.028-.027-.865-.359-1.27-.332-.405.257-.294.741-.429.487-.136 1.205-1.027 1.435-1.215.235-.19.359-.379.563-.459.21-.082.874.296 1.488.323.614.026.741-.727.921-1.215.181-.485.106-.73-.253-.836-.361-.109-.406.35-.718.999-.308.647-.923.162-1.024.026-.103-.136-.177-.516-.257-.865-.08-.35-.41-.269-1.053-.891-.64-.62.643-1.51 1.358-2.375.719-.864 2.565-2.782 2.997-2.969.436-.189.54.27.974.728.434.459.512.298.896.784.385.484.998.593.998.593.208-.054.309-.243.644.054.331.298 2.074-.515 2.303-.621.231-.109.413-.325.847-.405.436-.085 1.434-.704 1.538-.975.099-.271.873-.432 1.024-.271.151.162.413-.078.566-.512.151-.434.484.134.816.377.335.244.052-1 .052-1.405 0-.407.821-.351 1.102-.46.281-.11.514-.645 1.024-1.106.514-.46 2.527-.745 2.741-.785 1.666-.297 2.407 1.565 3.277 1.944.875.376 2.964.846 3.463.863 1.001.036 2.893.622 3.124.758.231.132 1.64.755 2.432.567.798-.19 2.64 1.294 2.947 1.509.309.217 1.052.837 1.087 1.115.026.272-.489.757-.718 1.027zM28.995 4.168c.129.7-.281.862-.642 1.267-.358.408-1.995 1.54-2.585 1.892-.591.351-.591.866-.821 1.566-.235.703-.283 1.185-.564 1.404-.283.216-.179-.378-.593-.431-.41-.056-.896-1.216-1.303-2.134-.413-.919-.338-1.703-.208-2.055.128-.348.179-.809-.026-1.106-.204-.297-.436-.028-.359-.784.067-.651-.285-2.263-.382-2.697h8.118c-.19.393-.544 1.112-.69 1.4-.203.406-.078.975.055 1.678zm-6.358 9.715c.255.458.051.568-.256.485-.305-.08-1.225.376-1.431.514-.21.139-.77.379-1.131.65-.358.272-.561.488-.951.648-.382.164-.433.513-.741 1.11-.303.592-.973 1.161-1.075 1.59-.101.43.053.945-.23 1.026-.285.082-.462-.594-.692-.836-.233-.242-1.003-.403-1.923-.134-.925.272-.307 1.729-.179 2.078.126.356.998-.347 1.255-.618.256-.269.46.134.488.514.025.376-.154.809.204.889.358.081.486.161.741.731.258.565.927.352 1.411 0 .491-.352 2.535.325 2.845.487.308.16.897.269 1.201.673.312.404 1.568 1.54 1.644 1.591.077.056 1.973.356 2.486.762.511.406-.23 2.001-.436 2.809-.207.809-.847 1.322-1.128 1.539-.281.215-2.387 2.809-2.716 3.188-.334.377-1.41 1.241-1.668 1.566-.255.322-.308.567-.204.999.104.43.104.648-.104 1.026-.205.376-.23.891-.05 1.297.181.404.486.432.103.537-.382.112-1.258-.159-1.769-1.022-.511-.864.128-2.998.074-3.645-.05-.648.437-3.54.539-4.213.101-.676-.33-1.163-.766-1.46-.438-.296-.976-1.619-1.234-2.08-.255-.458-.048-.943.128-1.432.181-.487.259-.919.077-1.243-.179-.323-1.051-.81-1.408-.971a3.27 3.27 0 0 1-.974-.675c-.33-.328-.765-.38-1.639-.57-.872-.189-1.412-1.269-1.613-1.622-.208-.352-.208.136-.285.623-.073.487-1.046-1.566-1.998-2.702-.942-1.134-1.02-3.105-.971-3.699.051-.591-.745-1.916-1.665-2.376-.921-.459-1.075-1.268-1.356-1.809-.281-.541-1.178-.541-1.77-.054-.588.485-1.434.296-2.46-.029-1.024-.325-.719-2-.973-2.618-.255-.619.743-.972.462-1.538-.278-.567.051-.514.332-.784.283-.272.847-.648 1.002-.864.15-.217.896-.163 1.102-.053.199.106.661.106.973.322.305.215 1.661.487 2.05.623.381.133.662-.272.971-.215.308.051 1.334.132 1.589-.057.256-.189.745.161.745.161.203.244 3.073.732 3.766.487.692-.245 1.05-.404 1.231-.056.179.354 1.047-.431 1.613-.567.565-.134 1.126.891 1.051 1.567-.075.676-.283.458-.332.866-.053.403.382.403.382.646 0 .242-.382.163-.585.352-.211.189-.439.189-.772.026-.332-.162-.437.057-.899.432-.458.378-.307.62-.409 1.297-.102.674.23.514.641.81.41.298.744.594 1.306.594.566 0 .414.541.414.889 0 .355.152.301.46.326.305.029 0-.946.305-1.106.309-.162.104-.648-.126-1.108-.235-.458.126-1.084.102-1.436-.025-.351.333-.486.692-.378.356.108.564.164.819.406.256.242.232.216.435.73.205.513.589-.028.768-.431.179-.406.437.106.668.702.23.592.283.757.77 1.377.486.619.818 1.999 1.074 2.456zm29.544 10.65s.899.676 1.205.999c.309.325.514-.187.694-.486.179-.298.46-.244.974-.461.51-.215.359.026.46.295.102.272-.101.705-.101.865 0 .166.462-.295.795-.593.332-.3.793-.217.87.055.076.269.026.699.076 1.023.052.323-.231.241-.562.433-.337.19-.592.025-.875-.029-.28-.055-.153.243-.33.381-.182.134-.771-.138-1.18-.374-.408-.244-.462-.192-.769 0-.306.186-.59-.217-.842-.57-.255-.347-.795-1.321-1.154-1.888-.358-.571.668.268.739.35zm8.071-6.947c-.588.349-2.282 1.458-1.947.999 0 0 .102-.593.491-.89.384-.301.764-.352.996-.812.231-.459.153-.27.386-.996.231-.731.307-.784.462-1.138.152-.347.355-.807.489-.459.123.35.326.837.069 1.081-.249.242-.406.323-.458.891-.05.568.099.973-.488 1.324zm1.479 9.802c-.356-.052-.507-.298-.944-.187-.436.109-.667-.248-1-.434-.33-.188.106-.431-.075-.539-.178-.109-.869-.214-.973-.591-.103-.378.664-.109.817 0 .16.104.644 0 1.234.104.589.109.384.298.874.513.484.217.432.163.407.352-.026.187.073.404.229.564.151.166-.208.272-.569.218zm-5.398 2.055c.305-.108.536-.673.795-.972.253-.299.665-.19.816-.136.158.052.281-.515.873-.678.586-.16.717.055.717.27 0 .217-.131.462.104.487.259.028.951-.322 1.054-.806.1-.485.536.51.713 1.051.182.541.977 1.323 1.357 1.697.384.383.263.867.129 1.299-.129.431-.41 1.321-.566 1.701-.153.379-.79.594-.972.594-.177 0-.514-.052-.944-.161-.436-.108-.522-.56-.849-.756-.164-.095-.538-.539-.769-.73-.231-.187-2 .382-2.406.597-.415.216-.67.196-1.029.055-.622-.246-.155-1.054-.129-1.404.028-.352-.231-.999-.231-1.432 0-.434 1.026-.567 1.337-.676z"/></svg>