<svg xmlns="http://www.w3.org/2000/svg" width="39" height="35"><path fill-rule="evenodd" fill="#FBC800" d="M27.669 35c-6.258 0-11.331-2.324-11.331-5.19v-1.126c0-.364.082-.72.238-1.064 1.071 2.358 5.63 4.128 11.093 4.128 5.462 0 10.022-1.771 11.092-4.128.156.344.239.7.239 1.064v1.126C39 32.676 33.927 35 27.669 35zm0-5.795c-6.258 0-11.331-2.324-11.331-5.191v-1.125c0-.364.082-.72.238-1.064 1.071 2.358 5.63 4.128 11.093 4.128 5.462 0 10.022-1.77 11.092-4.128.156.344.239.7.239 1.064v1.125c0 2.867-5.073 5.191-11.331 5.191zm0-6.107c-6.258 0-11.331-2.324-11.331-5.191V16.78c0-.364.082-.719.238-1.062 1.071 2.357 5.63 4.127 11.093 4.127 5.462 0 10.022-1.77 11.092-4.127.156.343.239.698.239 1.062v1.127c0 2.867-5.073 5.191-11.331 5.191zm0-5.796c-6.258 0-11.331-2.323-11.331-5.19v-1.126c0-.365.082-.72.238-1.063 1.071 2.356 5.63 4.127 11.093 4.127 5.462 0 10.022-1.771 11.092-4.127.156.343.239.698.239 1.063v1.126c0 2.867-5.073 5.19-11.331 5.19zm0-5.795c-6.258 0-11.331-2.324-11.331-5.19V5.191c0-2.867 5.073-5.19 11.331-5.19C33.927.001 39 2.324 39 5.191v1.126c0 2.866-5.073 5.19-11.331 5.19zM0 26.698v-1.126c0-.364.082-.72.238-1.063 1.071 2.356 5.631 4.127 11.093 4.127 1.096 0 2.155-.072 3.158-.206v1.38c0 .629.144 1.237.423 1.814a23.923 23.923 0 0 1-3.581.264C5.073 31.888 0 29.564 0 26.698zm0-5.796v-1.125c0-.364.082-.72.238-1.064 1.071 2.358 5.631 4.129 11.093 4.129 1.096 0 2.155-.073 3.158-.206v3.253a24.081 24.081 0 0 1-3.158.204C5.073 26.093 0 23.769 0 20.902zm0-5.795v-1.125c0-2.867 5.073-5.191 11.331-5.191 1.096 0 2.156.072 3.158.205v11.098a24.081 24.081 0 0 1-3.158.204C5.073 20.298 0 17.974 0 15.107z"/></svg>