<svg xmlns="http://www.w3.org/2000/svg" width="47" height="39"><path fill-rule="evenodd" fill="#F9D511" d="M42.626 12.841a2.674 2.674 0 0 0-2.665 2.677 2.672 2.672 0 0 0 2.665 2.676c1.466 0 2.66-1.2 2.66-2.676a2.673 2.673 0 0 0-2.66-2.677zm-38.246 0a2.674 2.674 0 0 0-2.666 2.677 2.672 2.672 0 0 0 2.666 2.676c1.467 0 2.661-1.2 2.661-2.676a2.673 2.673 0 0 0-2.661-2.677zm30.331-4.869c-2.184 0-3.956 1.786-3.956 3.987 0 2.195 1.772 3.979 3.956 3.979 2.185 0 3.959-1.784 3.959-3.979 0-2.197-1.78-3.987-3.959-3.987zM46.995 32.2h-4.51v-8.355c0-1.435-.422-2.767-1.093-3.929a4.312 4.312 0 0 1 1.234-.199c2.405 0 4.369 1.976 4.369 4.402V32.2zM12.291 7.972c-2.186 0-3.961 1.786-3.961 3.987 0 2.195 1.775 3.979 3.961 3.979 2.179 0 3.955-1.784 3.955-3.979 0-2.197-1.776-3.987-3.955-3.987zM4.38 19.717a4.3 4.3 0 0 1 1.229.199c-.681 1.162-1.092 2.494-1.092 3.929V32.2H.005v-8.081c0-2.426 1.965-4.402 4.375-4.402zM23.496.011c-3.225 0-5.854 2.643-5.854 5.891 0 3.247 2.626 5.893 5.854 5.893 3.23 0 5.856-2.646 5.856-5.893.003-3.248-2.626-5.891-5.856-5.891zm17.54 35.299h-6.913V22.598c0-1.749-.456-3.374-1.2-4.832.566-.168 1.16-.288 1.783-.288 3.486 0 6.33 2.854 6.33 6.367V35.31zM12.867 22.598V35.31H5.966V23.845c0-3.51 2.836-6.367 6.328-6.367.623 0 1.211.12 1.776.288-.742 1.458-1.203 3.083-1.203 4.832zm1.449 16.391h18.358V22.598c0-5.094-4.12-9.237-9.178-9.237-5.065 0-9.18 4.143-9.18 9.237v16.391z"/></svg>