<svg width="96" height="21" xmlns="http://www.w3.org/2000/svg"><title>On black</title><g fill="none" fill-rule="evenodd"><path d="M3.674 13.091c0 1.443.007 5.615 0 6.308 0 .41-.199.608-.602.615-.8.007-1.608.007-2.409 0-.41 0-.595-.198-.595-.615V.66C.068.257.245.08.65.08c2.338 0 4.675-.035 7.013.015 3.365.07 5.865 2.567 6.014 5.925.078 1.79-.262 3.451-1.424 4.865-1.176 1.436-2.741 2.129-4.576 2.2-1.19.049-3.832.006-4.002.006zm.014-2.976c1.112 0 2.182-.007 3.258 0 .914.006 1.658-.347 2.225-1.047.878-1.082 1.105-2.326.75-3.656C9.519 3.9 8.372 3.05 6.812 3.05H3.696c-.007 2.37-.007 4.696-.007 7.065zm23.288 9.906c-.524.043-.814-.212-.998-.665-.397-.954-.808-1.909-1.19-2.87-.1-.255-.234-.319-.496-.319-2.53.007-5.05.014-7.58 0-.29 0-.41.106-.51.354-.375.94-.772 1.867-1.161 2.8-.234.566-.433.693-1.049.693h-2.054c-.616 0-.836-.325-.574-.891.73-1.605 6.397-13.944 8.486-18.512.135-.29.29-.488.645-.495.368-.007.58.12.737.467 2.798 6.173 5.598 12.343 8.401 18.512.276.608.064.926-.602.926-.354-.007-1.729-.028-2.055 0zm-9.243-6.859h5.54a2031.08 2031.08 0 0 1-2.799-6.159c-.943 2.107-1.835 4.108-2.742 6.16zm18.02-6.265c.205-.297 3.075-4.51 4.313-6.357.205-.31.446-.438.815-.431.8.021 1.608.007 2.408.007.262 0 .532 0 .673.283.142.275.014.495-.141.72a3694.92 3694.92 0 0 1-6.05 8.925 1.408 1.408 0 0 0-.255.848c.007 2.793.01 5.584.007 8.372 0 .587-.163.75-.758.75h-2.16c-.525 0-.695-.177-.695-.7 0-2.85-.002-5.7-.007-8.55a1.096 1.096 0 0 0-.177-.586C31.754 7.199 27.606 1 27.556.872c-.155-.36.043-.735.433-.742.97-.021 1.933-.028 2.904.014.177.007.39.212.503.375 1.374 2 4.25 6.23 4.356 6.378zm60.209 9.928a3.21 3.21 0 0 1-6.419-.028c.022-1.768 1.46-3.196 3.21-3.19a3.197 3.197 0 0 1 3.209 3.218zm-3.252 2.793c1.551.028 2.812-1.195 2.862-2.765.042-1.513-1.218-2.82-2.742-2.85-1.572-.028-2.861 1.196-2.89 2.73a2.806 2.806 0 0 0 2.77 2.885zm.567-2.538c.29.417.567.806.843 1.209-.319.127-.496.028-.624-.22-.084-.17-.212-.31-.304-.473-.248-.425-.602-.566-1.112-.438v1.159a5.366 5.366 0 0 0-.354.028v-2.736c.51 0 1.006-.021 1.494.007.41.02.637.268.68.636.043.36-.134.636-.517.785a.41.41 0 0 1-.106.043zm-1.19-.305c.368 0 .708.015 1.048-.006.248-.014.39-.177.397-.418.007-.261-.163-.417-.418-.438-.333-.021-.673-.007-1.027-.007v.87z" fill="#FFF"/><path d="M84.203 12.053c.099.191.184.361.269.524l3.399 6.41c.07.11.126.23.162.355.086.327-.106.61-.439.617-.99.015-1.982.007-2.974.007-.297 0-.389-.227-.488-.44-1.112-2.29-2.23-4.58-3.328-6.878-.135-.284-.29-.404-.616-.397a40.76 40.76 0 0 1-2.266 0c-.311-.007-.403.1-.403.411.007 2.177.007 4.347.007 6.524 0 .681-.1.78-.772.78H74.7c-.545 0-.693-.142-.693-.688V.735c0-.49.163-.66.651-.66 2.585 0 5.17-.014 7.753 0 2.89.014 5.247 1.908 5.757 4.695.545 2.964-.68 5.701-3.555 7.084-.134.057-.262.12-.41.199zm-6.62-2.688c.155 0 3.073-.007 4.417 0a2.34 2.34 0 0 0 1.445-.49c1.062-.794 1.558-2.311 1.19-3.651-.39-1.426-1.423-2.22-2.89-2.22h-4.162v6.361zM49.278 3.004v5.58h6.613c.56 0 .723.164.723.71v1.56c0 .49-.17.66-.659.66h-6.67v5.58h7.938c.608 0 .743.135.743.745v1.489c0 .532-.163.695-.693.695-3.35 0-10.671.007-10.976 0-.35-.006-.53-.14-.58-.435A8733.55 8733.55 0 0 1 45.703.905c0-.71.12-.823.814-.823h10.649c.673 0 .793.12.793.808v1.42c0 .553-.149.702-.715.702-2.5-.007-7.782-.007-7.966-.007zm10.648 7.027V.777c0-.581.127-.709.701-.709H71.46c.553 0 .694.142.694.68v1.596c0 .504-.141.653-.651.653h-7.541c-.517 0-.517 0-.517.51 0 1.56.007 3.12-.007 4.68 0 .313.092.398.404.398 2.04-.014 4.085-.007 6.124-.007.744 0 .843.1.843.822v1.49c0 .446-.163.617-.623.617-1.076.006-5.318.006-6.373 0-.261 0-.375.05-.375.347.014 1.631.014 3.262 0 4.893 0 .29.106.348.375.348 2.528-.007 5.049-.007 7.577-.007.665 0 .764.1.764.78v1.49c0 .503-.149.659-.644.659H60.676c-.63 0-.743-.114-.743-.738-.007-3.078-.01-6.16-.007-9.248z" fill="#39C"/></g></svg>