<svg xmlns="http://www.w3.org/2000/svg" width="632" height="691" viewBox="0 0 632 691" fill="#5e649f"><path d="M420.479 659.722c-35.409 0-72.513-6.374-113.43-19.485-46.818-15.001-92.18-37.301-138.677-68.171-25.803-17.133-50.759-36.925-76.294-60.508-20.513-18.944-39.979-39.873-59.513-63.98-20.074-24.776-25.789-53.596-17.471-88.105 6.086-25.243 18.105-50.365 37.825-79.06 17.58-25.582 38.163-49.891 62.923-74.317 37.641-37.13 79.06-71.069 123.108-100.873 24.721-16.727 44.066-28.813 62.726-39.189 28.788-16.008 67.304-35.846 109.982-47.261 14.226-3.806 28.612-5.735 42.76-5.735 7.427 0 14.932.533 22.306 1.583 28.736 4.095 52.882 17.053 71.765 38.517 21.717 24.684 35.359 55.917 42.936 98.291 2.209 12.362 2.232 25.027 2.255 37.275l.011 4.169c-.243 9.026-.437 18.191-.623 27.054-.414 19.622-.842 39.912-1.835 59.843-2.223 44.635-6.023 103.384-15.754 161.98-8.091 48.731-17.685 85.041-31.106 117.733-12.869 31.348-27.409 53.922-45.758 71.041-19.866 18.536-43.305 28.319-69.663 29.078-2.805.079-5.654.12-8.473.12zm33.939-645.686c-14.061 0-28.36 1.918-42.502 5.701-42.571 11.387-81.017 31.189-109.753 47.169-18.633 10.361-37.956 22.433-62.651 39.143-43.997 29.77-85.369 63.669-122.966 100.756-24.715 24.381-45.258 48.643-62.801 74.172-19.648 28.591-31.62 53.607-37.677 78.728-8.24 34.187-2.589 62.724 17.276 87.242 19.502 24.069 38.937 44.963 59.414 63.875 25.495 23.546 50.41 43.306 76.168 60.408 46.419 30.819 91.7 53.08 138.429 68.052 44.064 14.121 83.68 20.422 121.566 19.317 26.108-.751 49.327-10.443 69.011-28.809 18.239-17.019 32.702-39.48 45.514-70.69 13.393-32.619 22.968-68.863 31.046-117.518 9.723-58.547 13.52-117.258 15.742-161.866.992-19.916 1.42-40.199 1.833-59.814.188-8.865.38-18.031.623-27.045l-.011-4.155c-.022-12.205-.046-24.825-2.239-37.101-7.542-42.187-21.111-73.265-42.701-97.806-18.722-21.279-42.662-34.126-71.155-38.187a158.021 158.021 0 0 0-22.166-1.572z"/></svg>