<svg xmlns="http://www.w3.org/2000/svg" width="2600" height="594.667" viewBox="0 0 2600 594.66669"><path d="M0 583.828v-12.84l7.667.842 7.666.84 46.245 3.316 46.244 3.316 51.089 2.645L210 584.592l38 1.46 38 1.458 110.075.756 110.074.755 56.592-1.553 56.592-1.552 43.334-1.963L706 581.99l24.667-1.388 24.666-1.387L802 575.923l46.667-3.291 23.333-2.03 23.333-2.029 28-2.582 28-2.582 14-1.406 14-1.405 30-3.338 30-3.338 27.334-3.349 27.333-3.349 30-3.991 30-3.992 23.333-3.332 23.334-3.333 30-4.662 30-4.663 32-5.933 32-5.933 26.666-5.256 26.667-5.257 22.667-4.82 22.666-4.82 30-6.771 30-6.772 13.334-3.065 13.333-3.065 35.333-8.856 35.334-8.856 32.347-8.602 32.347-8.601 34.32-9.922L1714 416.8l26-7.926 26-7.927 25.333-8.067 25.334-8.067 32-10.887 32-10.886L1912 351.748l31.333-11.293 36.326-13.934 36.326-13.934 38.341-15.803 38.34-15.803L2120 268.998l27.333-11.983 30-13.776 30-13.775L2260 203.16l52.667-26.303 38.666-21.188L2390 134.482l28.758-16.817 28.758-16.817 25.242-15.559L2498 69.73l31.333-20.685 31.334-20.685 18.906-13.18L2598.479 2H2600v594.667H0z" fill="#5e63a1" stroke-width="1.333"/></svg>