<svg xmlns="http://www.w3.org/2000/svg" viewBox="0 0 2600 50.923279" height="50.923" width="2600"><path d="M13.667 50.106L0 50.923V0h2600v15.077l-39.667-.886-39.666-.886-67.334-1.327L2386 10.652l-96.667-1.333-96.666-1.333L1998 7.151l-194.667-.835-172.666 1.524L1458 9.364l-81.333 1.31-81.334 1.308L1220 13.326l-75.333 1.343L1084 15.993l-60.667 1.323L962 18.7l-61.333 1.384-73.334 1.922L754 23.926l-26.667.745-26.666.744L616 28.035l-84.667 2.62L468 32.687l-63.333 2.034-89.334 3.313L226 41.347l-67.333 2.651-67.334 2.652-32 1.32-32 1.318z" fill="#5e63a1" stroke-width="1.333"/></svg>