<svg xmlns="http://www.w3.org/2000/svg" viewBox="0 0 1950 65.242325" height="65.242" width="1950"><path d="M975 65.242h975V6.537l-21.25-.653-21.25-.654-45.5-1.02-45.5-1.02-50.5-1.046-50.5-1.047-196-.548-196-.549-85 1.145-85 1.145-46.5.964-46.5.965-41 1.036-41 1.036L929 7.777l-49.5 1.486-42 1.503-42 1.503-48.5 1.992-48.5 1.993-43 2.013-43 2.014-38.5 2.004-38.5 2.005-43.5 2.486-43.5 2.486-47.5 3.013-47.5 3.013-36 2.496-36 2.496-13 .972-13 .972-40 3.039-40 3.04-48 3.987-48 3.988-38.437 3.482-38.437 3.482H0v2z"/></svg>