<svg xmlns="http://www.w3.org/2000/svg" width="1950" height="112.903" viewBox="0 0 1950 112.90273"><path d="M975 112.903H0V95.557l22.25 1.11 22.25 1.11L89 99.471l44.5 1.693 51.5 1.79 51.5 1.79 194.53.912 194.531.913 84.97-1.929 84.969-1.928 46.5-1.625 46.5-1.625 41-1.746 41-1.747 49.5-2.503 49.5-2.504 42-2.533 42-2.533 48.5-3.358 48.5-3.357 43-3.393 43-3.393 38.5-3.378 38.5-3.377 43.5-4.19 43.5-4.19 47.5-5.076 47.5-5.077 36-4.207 36-4.206 13-1.637 13-1.638 40-5.121 40-5.122 48-6.72 48-6.72 38.437-5.868L1946.374 0H1950v112.903z" stroke-width="1.298"/></svg>