<svg xmlns="http://www.w3.org/2000/svg" xmlns:xlink="http://www.w3.org/1999/xlink" viewBox="0 0 52.34 87.43"><defs><style>.cls-1{isolation:isolate}.cls-2{fill:#2d3d94}.cls-3{fill:url(#linear-gradient)}.cls-4{fill:#fff}.cls-5{fill:#cacfe3;mix-blend-mode:multiply}.cls-6{fill:url(#Безымянный_градиент_61)}.cls-7{fill:url(#linear-gradient-2)}</style><linearGradient id="linear-gradient" y1="51.48" x2="52.34" y2="51.48" gradientUnits="userSpaceOnUse"><stop offset="0" stop-color="#fff"/><stop offset="1" stop-color="#cacfe3"/></linearGradient><linearGradient id="Безымянный_градиент_61" data-name="Безымянный градиент 61" x1="6.47" y1="62.75" x2="16.24" y2="62.75" gradientUnits="userSpaceOnUse"><stop offset="0" stop-color="#001f5e"/><stop offset="1" stop-color="#8257ab"/></linearGradient><linearGradient id="linear-gradient-2" x1="6.47" y1="15.25" x2="45.87" y2="15.25" xlink:href="#linear-gradient"/></defs><title>representative2</title><g class="cls-1"><g id="Слой_1" data-name="Слой 1"><path class="cls-2" d="M36.1 31.63v28a4.89 4.89 0 1 0 9.77 0v-28a4.89 4.89 0 0 0-9.77 0z"/><path class="cls-3" d="M0 41.7c0 14.45 11.72 45.73 26.17 45.73S52.34 56.15 52.34 41.7A26.17 26.17 0 0 0 0 41.7z"/><path class="cls-4" d="M3.7 78.22c0-3.53 3.35-6.39 7.48-6.39s7.47 2.86 7.47 6.39-3.35 6.38-7.47 6.38-7.48-2.86-7.48-6.38z"/><path class="cls-5" d="M13.1 28.36c0 4.71 5.85 8.53 13.07 8.53s13.07-3.82 13.07-8.53-5.85-8.52-13.07-8.52-13.07 3.82-13.07 8.52z"/><path class="cls-6" d="M6.47 48.74v28a4.89 4.89 0 0 0 9.77 0v-28a4.89 4.89 0 0 0-9.77 0z"/><ellipse class="cls-7" cx="26.17" cy="15.25" rx="19.7" ry="15.25"/><path class="cls-2" d="M39.31 10.21L28.58 16.4c-2.59 1.5-4.4 5.34-4 8.58s2.74 4.66 5.33 3.17L40.59 22c2.59-1.5 4.4-5.34 4-8.58s-2.7-4.7-5.28-3.21z"/></g></g></svg>