<svg xmlns="http://www.w3.org/2000/svg" viewBox="0 0 322.94 177.28"><defs><style>.cls-1{mask:url(#mask);filter:url(#luminosity-noclip-2)}.cls-2,.cls-5,.cls-6{mix-blend-mode:multiply}.cls-2{fill:url(#Безымянный_градиент_2)}.cls-3{isolation:isolate}.cls-4{mask:url(#mask-2)}.cls-5{fill:url(#Безымянный_градиент_26)}.cls-6{fill:#9294b0}.cls-7{fill:url(#Безымянный_градиент_104)}.cls-8{fill:#fff}.cls-9{fill:url(#Новый_образец_градиента_1)}.cls-10{filter:url(#luminosity-noclip)}</style><filter id="luminosity-noclip" x="140.5" y="-8280.74" width="182.44" height="32766" filterUnits="userSpaceOnUse" color-interpolation-filters="sRGB"><feFlood flood-color="#fff" result="bg"/><feBlend in="SourceGraphic" in2="bg"/></filter><linearGradient id="Безымянный_градиент_2" data-name="Безымянный градиент 2" x1="140.5" y1="94.63" x2="322.94" y2="94.63" gradientUnits="userSpaceOnUse"><stop offset="0" stop-color="#fff"/><stop offset="1"/></linearGradient><filter id="luminosity-noclip-2" x="140.5" y="11.98" width="182.44" height="165.3" filterUnits="userSpaceOnUse" color-interpolation-filters="sRGB"><feFlood flood-color="#fff" result="bg"/><feBlend in="SourceGraphic" in2="bg"/></filter><mask id="mask-2" x="140.5" y="11.98" width="182.44" height="165.3" maskUnits="userSpaceOnUse"><g class="cls-1"><path class="cls-2" d="M184.53 12h-44l130 75a8.79 8.79 0 0 1 0 15.23l-130 75h44a24.38 24.38 0 0 0 12.22-3.23l120.55-69.59a11.29 11.29 0 0 0 0-19.56l-120.55-69.6A24.37 24.37 0 0 0 184.53 12z"/></g></mask><linearGradient id="Безымянный_градиент_26" data-name="Безымянный градиент 26" x1="140.5" y1="94.63" x2="322.94" y2="94.63" gradientUnits="userSpaceOnUse"><stop offset="0" stop-color="#bcbee3"/><stop offset="1" stop-color="#bcbee3"/></linearGradient><linearGradient id="Безымянный_градиент_104" data-name="Безымянный градиент 104" x1="280.14" y1="115.98" x2=".39" y2="115.98" gradientUnits="userSpaceOnUse"><stop offset=".4" stop-color="#bcbee3"/><stop offset=".61" stop-color="#d0d2f3"/></linearGradient><linearGradient id="Новый_образец_градиента_1" data-name="Новый образец градиента 1" y1="81.12" x2="280.99" y2="81.12" gradientUnits="userSpaceOnUse"><stop offset="0" stop-color="#f7f8ff"/><stop offset="1" stop-color="#f2f3f9"/></linearGradient></defs><title>representative1</title><g class="cls-3"><g id="Слой_1" data-name="Слой 1"><g class="cls-4"><path class="cls-5" d="M184.53 12h-44l130 75a8.79 8.79 0 0 1 0 15.23l-130 75h44a24.38 24.38 0 0 0 12.22-3.23l120.55-69.59a11.29 11.29 0 0 0 0-19.56l-120.55-69.6A24.37 24.37 0 0 0 184.53 12z"/></g><path class="cls-6" d="M281 96.16c-.22-3.39-2.79-6.9-7.6-9.68L157.12 19.43c-9.2-5.31-23.11-5.88-31.08-1.28L5.37 87.89c-3.8 2.2-5.56 5.18-5.37 8.27.22 3.38 2.78 6.9 7.59 9.67l116.26 67.06c9.2 5.31 23.12 5.88 31.08 1.27l120.67-69.73c3.83-2.2 5.58-5.18 5.4-8.27z"/><path class="cls-7" d="M281 94V82.5l-47.18 22.93-76.7-44.23c-9.2-5.31-23.11-5.88-31.08-1.28l-78.79 45.53L0 82.5v10.67A6.17 6.17 0 0 0 0 94c.22 3.38 2.78 6.9 7.59 9.67l116.26 67.06a35.82 35.82 0 0 0 16.63 4.37c5.41.14 10.62-.88 14.45-3.09l120.69-69.71c3.8-2.19 5.56-5.17 5.38-8.3z"/><path class="cls-8" d="M281 82.5c-.22-3.38-2.79-6.9-7.6-9.67L157.12 5.77C147.92.46 134-.11 126 4.5L5.37 74.23C1.57 76.43-.19 79.41 0 82.5c.22 3.39 2.78 6.9 7.59 9.68l116.26 67.06c9.2 5.3 23.12 5.87 31.08 1.27l120.69-69.74c3.81-2.19 5.56-5.17 5.38-8.27z"/><path class="cls-9" d="M281 81.12c-.22-3.39-2.79-6.9-7.6-9.68l-116.26-67C147.92-.92 134-1.49 126 3.11L5.37 72.85C1.57 75-.19 78 0 81.12.24 84.5 2.8 88 7.61 90.79l116.26 67.06c9.2 5.31 23.12 5.88 31.08 1.27l120.67-69.73c3.81-2.2 5.56-5.18 5.38-8.27z"/></g></g></svg>