<svg xmlns="http://www.w3.org/2000/svg" viewBox="0 0 1948.3333 114.98411" height="114.984" width="1948.333"><path d="M1323.333 114.83l-95.5-.155-35-.748-35-.747-37-1.108-37-1.107-26.5-.984-26.5-.983-23-1.035-23-1.034-30.5-1.452-30.5-1.453-7.5-.54-7.5-.54-35.5-2-35.5-2-35.5-2.483-35.5-2.482-14-1.019-14-1.018-48.5-4-48.5-4-27-2.491-27-2.49-30.5-3.005-30.5-3.004-28-3.004-28-3.004-17.5-1.946-17.5-1.945-34-4.055-34-4.055-28-3.502-28-3.501-33.5-4.523-33.5-4.522-38-5.49-38-5.49-35.5-5.489-35.5-5.49-48.5-8.06L.833.818.417.409 0 0h1948.333v78h-1.554l-13.973 1.965-13.973 1.966-28 3.511-28 3.512-28.5 2.982-28.5 2.982-28.5 2.522-28.5 2.523-27 2.007-27 2.007-24 1.496-24 1.495-29.5 1.512-29.5 1.512-39.5 1.504-39.5 1.503-45 .993-45 .992z" fill="#febc00"/></svg>