<svg xmlns="http://www.w3.org/2000/svg" width="1950" height="84.001" viewBox="0 0 1950 84.000603"><path d="M975 86H0V59l2.25.004 2.25.003 22 1.49 22 1.492 50 2.978 50 2.977 50.5 2.501 50.5 2.5 23 1.03 23 1.03 39 1.48 39 1.478L406 78.99l32.5 1.025 37 .988 37 .988 57.5.963 57.5.963 69 .612 69 .611 90.5-1.068 90.5-1.067 41-.997 41-.996 33-1.013 33-1.013 26.5-1.007 26.5-1.007 35-1.512 35-1.513 38-1.98 38-1.982 40.5-2.502 40.5-2.502 42-3.021 42-3.021 42-3.492 42-3.491 26.5-2.495 26.5-2.494 25-2.513 25-2.512 36.5-4.016 36.5-4.016 28.5-3.479 28.5-3.478 33.5-4.45 33.5-4.449 31.42-4.556 31.421-4.557 21.99-3.47L1949.32 2h.679v84z" fill="#febc02"/></svg>